<?xml version="1.0" standalone="no"?>
<!DOCTYPE svg PUBLIC "-//W3C//DTD SVG 20010904//EN"
 "http://www.w3.org/TR/2001/REC-SVG-20010904/DTD/svg10.dtd">
<svg version="1.0" xmlns="http://www.w3.org/2000/svg"
 width="300.000000pt" height="168.000000pt" viewBox="0 0 300.000000 168.000000"
 preserveAspectRatio="xMidYMid meet">
<metadata>
Created by potrace 1.15, written by Peter Selinger 2001-2017
</metadata>
<g transform="translate(0.000000,168.000000) scale(0.100000,-0.100000)"
fill="#000000" stroke="none">
<path d="M0 840 l0 -840 280 0 280 1 1 37 c1 20 0 51 -1 67 -2 33 15 25 23
-10 4 -19 5 -18 14 4 6 15 12 20 17 13 7 -12 -28 -54 -38 -44 -3 3 -6 -11 -6
-31 0 -20 5 -37 10 -37 6 0 10 6 10 14 0 8 7 22 16 30 16 16 34 13 34 -5 0 -6
-4 -8 -9 -5 -5 3 -14 -1 -20 -8 -9 -11 -9 -16 0 -21 6 -4 15 -2 19 5 4 7 10 8
13 3 4 -6 20 -10 37 -11 21 0 28 3 23 11 -4 7 0 6 10 -2 15 -12 17 -11 17 3 0
9 -6 16 -12 16 -10 0 -9 3 1 9 8 5 10 14 6 21 -6 9 -4 11 5 5 10 -6 12 -4 7 9
-5 11 -3 15 5 10 7 -5 9 -2 6 8 -4 8 0 15 7 15 10 0 11 -5 5 -18 -6 -10 -12
-33 -16 -53 l-5 -36 38 4 c29 2 39 7 40 22 2 15 1 15 -5 4 -10 -21 -36 -19
-40 4 -3 14 0 17 11 13 31 -12 38 66 8 83 -14 7 -21 6 -24 -3 -3 -6 -6 -3 -7
8 l-1 20 -11 -20 c-12 -19 -12 -19 -19 5 -6 23 -7 23 -8 3 -1 -28 -21 -41 -21
-14 0 15 -6 19 -30 19 -25 -1 -27 -3 -14 -12 13 -10 13 -14 -7 -31 l-22 -20 7
25 c4 14 4 20 -1 14 -6 -9 -11 -8 -21 2 -11 12 -10 14 3 14 9 0 14 4 11 9 -8
13 19 21 70 21 24 0 45 3 45 8 7 41 5 53 -8 47 -10 -3 -13 -1 -10 9 4 10 1 13
-7 10 -7 -3 -16 2 -19 10 -4 9 -13 16 -22 16 -30 0 -6 45 30 54 29 7 33 21 8
31 -17 6 -17 8 2 21 15 11 17 17 7 23 -7 4 -12 12 -11 17 1 5 1 13 0 17 -1 10
-72 -31 -87 -52 -6 -8 -16 -11 -22 -7 -18 11 -37 -4 -21 -15 11 -8 11 -12 -4
-24 -19 -14 -51 -10 -42 6 3 5 -5 11 -18 15 -14 3 -34 17 -46 30 -23 26 -20
30 10 14 27 -15 24 0 -6 29 -18 17 -25 19 -25 8 0 -8 -8 -18 -17 -22 -14 -5
-15 -4 -6 6 10 10 9 15 -2 23 -9 7 -14 33 -15 71 -2 85 -3 82 30 87 32 5 53
-11 64 -49 4 -13 11 -23 15 -23 9 0 29 -66 28 -95 0 -11 -5 -23 -11 -27 -6 -5
-1 -8 12 -8 13 0 20 4 17 10 -3 6 3 10 14 10 11 0 23 5 26 10 4 6 10 8 15 5 4
-3 10 2 14 10 3 8 0 15 -6 15 -6 0 -8 3 -4 7 4 5 15 -1 23 -12 11 -14 17 -16
20 -7 3 6 11 12 19 12 8 0 14 7 14 15 0 8 -5 15 -11 15 -5 0 -8 -4 -5 -8 3 -5
-1 -9 -8 -9 -10 0 -11 10 -5 41 11 58 11 88 -1 81 -6 -4 -8 -10 -5 -15 8 -12
-21 -80 -34 -80 -6 0 -8 6 -5 14 4 11 0 13 -17 9 -18 -5 -21 -3 -16 10 3 9 1
20 -5 23 -8 5 -5 10 8 15 17 7 16 8 -6 9 -24 1 -23 2 10 20 33 18 34 19 10 20
-22 1 -23 2 -6 9 25 10 9 19 -26 15 -15 -1 -31 2 -34 8 -4 6 -2 8 4 4 6 -3 13
-2 16 2 3 5 -28 9 -69 8 -63 -1 -76 2 -89 19 l-15 20 -1 -20 c-1 -15 -4 -12
-11 10 -20 59 -53 125 -63 126 -6 1 -18 2 -26 3 -37 3 -160 39 -160 47 0 5 -7
9 -15 9 -8 0 -15 5 -15 11 0 5 -5 7 -10 4 -6 -3 -10 -1 -10 4 0 6 -8 19 -18
29 -17 17 -18 27 -10 93 6 50 14 78 25 87 13 9 14 15 5 24 -13 13 -16 29 -4
27 35 -6 63 3 61 19 -3 38 1 73 10 68 5 -3 7 -15 4 -26 -3 -11 -1 -20 5 -20 6
0 12 19 14 42 3 45 24 63 31 26 l4 -23 2 23 c0 13 7 22 17 22 8 0 12 5 9 10
-3 6 -15 10 -26 10 -13 0 -19 6 -18 23 1 16 2 18 6 5 2 -10 11 -18 18 -18 18
0 29 61 20 108 -16 83 -17 98 -6 82 10 -13 11 -13 12 0 0 8 5 4 9 -10 7 -23 8
-23 9 -3 1 12 7 24 14 27 10 5 10 7 -1 12 -15 7 -16 44 0 44 9 0 9 3 0 12 -7
7 -12 26 -11 43 1 29 1 29 9 5 8 -24 8 -23 9 8 l1 32 -90 0 -90 0 -1 -67 c-1
-53 -3 -61 -9 -38 -4 17 -8 47 -9 68 -1 36 -2 37 -41 37 l-40 0 0 -840z"/>
<path d="M2276 1669 c3 -5 -2 -9 -10 -9 -9 0 -16 -4 -16 -9 0 -5 -9 -7 -20 -4
-14 4 -20 0 -20 -11 0 -26 29 -30 68 -10 37 20 72 21 72 3 0 -5 -11 -9 -24 -9
-24 0 -56 -23 -56 -40 0 -4 -16 -11 -35 -14 -20 -4 -33 -11 -30 -16 3 -5 -5
-16 -17 -25 -23 -16 -23 -16 7 -9 25 6 28 5 19 -7 -20 -25 -28 -72 -25 -151 3
-65 0 -79 -14 -84 -9 -4 -23 0 -33 10 -14 13 -14 16 -2 16 8 0 1 9 -17 20 -33
20 -45 48 -58 142 -7 52 -43 104 -82 119 -29 11 -106 -8 -133 -33 -33 -31 3
-88 46 -71 10 4 20 0 26 -11 5 -9 14 -14 20 -10 13 8 -1 -38 -14 -47 -11 -7 0
-39 14 -39 6 0 8 -9 5 -20 -3 -11 0 -23 5 -27 6 -3 8 -2 5 3 -3 6 6 11 21 12
l27 2 -29 -15 c-15 -8 -32 -13 -36 -10 -5 3 -11 -1 -13 -7 -4 -10 -6 -10 -6 0
-1 6 -6 12 -12 12 -8 0 -8 -4 -1 -13 6 -7 16 -34 23 -60 8 -35 14 -45 21 -35
6 9 7 6 3 -9 -9 -31 8 -29 25 3 10 18 11 27 3 32 -7 5 -7 11 3 19 10 11 13 5
16 -30 2 -34 -1 -44 -17 -53 -15 -8 -24 -7 -38 4 -10 9 -21 12 -26 6 -11 -13
8 -94 22 -91 7 1 11 -6 9 -16 -3 -20 44 -97 59 -97 5 0 18 18 29 40 11 22 23
40 25 40 4 0 -34 -87 -43 -100 -9 -11 -90 94 -96 124 l-7 31 -16 -33 c-12 -25
-13 -36 -4 -45 8 -8 11 -7 11 4 1 7 7 -1 16 -20 8 -19 12 -36 9 -39 -2 -3 2
-10 11 -16 8 -7 16 -26 16 -44 1 -31 17 -54 34 -51 33 6 33 -5 2 -22 -21 -11
-38 -26 -38 -35 0 -8 -4 -13 -8 -10 -5 3 -14 -10 -19 -29 -9 -27 -8 -33 3 -28
8 3 14 2 14 -1 0 -11 -36 -77 -83 -154 -40 -65 -44 -77 -39 -118 4 -39 1 -49
-22 -73 -15 -15 -31 -45 -37 -65 -7 -26 -15 -36 -24 -32 -8 3 -17 1 -20 -4 -3
-4 1 -11 7 -13 7 -3 3 -6 -9 -6 -24 -1 -31 -17 -11 -23 16 -6 21 -227 6 -245
-8 -10 -5 -13 11 -13 11 0 20 3 19 8 -2 4 6 19 18 34 15 19 24 24 32 16 7 -7
18 4 36 40 14 28 26 58 26 67 0 8 8 15 18 16 22 1 83 6 100 8 15 1 16 37 1 47
-8 4 -7 9 2 15 10 7 11 11 3 17 -12 7 -16 65 -4 57 3 -2 7 2 7 10 0 8 -4 12
-9 9 -4 -3 -8 2 -8 10 0 8 -5 18 -12 22 -7 5 -9 2 -5 -8 4 -13 0 -15 -24 -11
-17 2 -37 -1 -46 -9 -15 -12 -15 -11 -4 10 6 12 9 22 6 22 -4 0 1 7 9 16 9 8
16 22 16 31 0 10 6 13 18 9 16 -6 16 -5 0 8 -17 12 -17 14 4 32 12 10 18 13
14 6 -4 -7 -5 -24 -2 -38 5 -18 13 -24 34 -24 15 0 34 -6 41 -13 10 -10 16 -8
28 10 20 29 40 29 49 1 l7 -23 8 23 c10 28 24 28 42 1 14 -19 16 -19 24 -4 8
13 16 3 42 -49 18 -35 30 -69 27 -74 -3 -5 3 -21 14 -35 11 -14 20 -31 20 -39
0 -10 3 -9 10 2 5 8 10 11 10 5 0 -5 10 -21 21 -35 11 -14 17 -18 13 -10 -7
13 -5 13 9 1 9 -7 15 -17 12 -21 -2 -4 4 -15 15 -25 11 -10 20 -23 20 -29 0
-6 -36 -30 -80 -54 -44 -24 -80 -45 -80 -48 0 -3 61 -4 135 -3 74 0 135 5 135
10 0 5 11 9 24 9 14 0 28 5 31 10 10 16 65 8 62 -9 -1 -7 3 -16 9 -18 14 -5
13 29 -1 39 -12 9 59 78 80 78 10 0 15 -10 15 -32 0 -25 -3 -29 -10 -18 -8 13
-10 12 -11 -5 -1 -11 -2 -26 -2 -32 1 -16 -7 -16 -21 0 -6 7 -10 10 -9 8 1 -2
-2 -12 -8 -22 -9 -17 -6 -19 26 -19 19 0 35 5 35 10 0 19 2 25 10 35 4 6 6 18
5 28 -2 9 1 14 7 11 9 -6 6 -31 -8 -67 -5 -14 12 -16 130 -16 l136 -1 0 705 0
705 -29 0 c-16 0 -32 6 -34 13 -4 10 -6 10 -6 0 -1 -18 -59 -16 -77 1 -31 32
-17 39 66 33 l80 -6 0 116 c0 101 -2 114 -16 109 -9 -3 -21 -6 -27 -7 -7 0 -3
-4 8 -9 13 -6 15 -9 5 -9 -13 -1 -13 -2 0 -11 9 -6 10 -10 3 -10 -6 0 -15 5
-18 10 -10 16 -38 12 -31 -5 3 -8 1 -15 -4 -15 -6 0 -10 9 -10 20 0 11 6 20
13 20 8 0 7 4 -3 10 -16 10 -220 14 -220 5 0 -4 7 -20 16 -38 17 -32 17 -32
-4 -14 -15 14 -21 15 -24 5 -3 -7 1 -19 9 -26 10 -10 10 -16 0 -26 -7 -9 -14
-10 -18 -4 -4 6 -9 5 -12 -3 -3 -8 -6 -3 -6 12 -1 14 -6 30 -13 37 -9 9 -9 12
0 12 7 0 12 5 12 11 0 8 -4 8 -13 1 -14 -12 -57 -5 -57 8 0 8 -33 1 -72 -15
-13 -5 -18 -2 -18 9 0 19 -16 21 -23 4 -4 -10 -6 -9 -6 1 -1 21 -31 -7 -31
-30 0 -27 -20 -24 -21 4 0 21 -1 21 -11 -3 -11 -25 -11 -25 -15 -2 -3 12 -9
22 -14 22 -6 0 -8 -10 -4 -22 5 -18 4 -20 -4 -8 -6 8 -11 27 -11 42 0 25 -3
26 -45 26 -25 0 -43 -4 -39 -9z m410 -499 c-1 -74 -5 -103 -15 -109 -8 -5 -10
-14 -6 -21 6 -9 4 -11 -5 -5 -8 5 -11 3 -8 -5 2 -8 14 -14 25 -15 13 -1 19 3
16 11 -2 7 -1 19 4 27 7 12 13 12 38 1 17 -7 24 -13 16 -14 -8 0 -11 -7 -8
-20 5 -21 -46 -83 -73 -87 -8 -1 -22 -10 -30 -21 -9 -10 -21 -17 -28 -16 -7 1
-8 0 -2 -3 5 -2 8 -9 4 -14 -3 -5 11 0 31 11 20 11 40 18 46 15 5 -4 9 -1 9 6
0 7 3 10 6 6 10 -9 67 20 70 36 2 16 -31 12 -42 -4 -3 -5 -9 -9 -14 -9 -6 0 2
13 17 29 23 25 29 27 41 14 8 -7 12 -25 10 -38 -3 -13 -1 -22 3 -19 5 3 9 -2
9 -10 0 -9 7 -16 16 -16 8 0 12 -5 9 -11 -4 -6 -14 -8 -22 -4 -9 3 -26 -1 -38
-9 -19 -13 -24 -13 -28 -2 -3 8 0 19 6 25 8 8 8 11 0 11 -13 0 -33 -45 -38
-89 -2 -17 -12 -39 -22 -49 -16 -16 -16 -16 -9 3 5 11 11 31 14 45 5 22 3 23
-11 12 -9 -8 -19 -22 -22 -33 -4 -11 -10 -17 -15 -14 -4 3 -15 2 -24 -1 -12
-5 -14 -10 -6 -19 14 -16 2 -44 -29 -72 -30 -26 -12 -31 25 -6 24 15 25 15 31
-5 6 -23 18 -28 28 -12 3 6 18 10 33 10 20 0 23 -3 14 -12 -7 -7 -8 -17 -1
-30 8 -15 6 -17 -13 -14 -13 2 -22 9 -20 15 3 14 -15 15 -23 1 -3 -5 -2 -10 2
-10 5 0 9 -10 10 -21 3 -31 11 -35 28 -13 8 11 15 14 15 7 0 -7 9 -13 19 -13
27 0 37 48 14 67 -10 8 -11 11 -3 7 12 -7 13 -5 3 8 -16 18 -7 28 24 28 27 0
29 -6 7 -27 -9 -10 -12 -18 -5 -22 5 -4 12 -19 15 -34 4 -23 -1 -31 -27 -47
-25 -16 -28 -20 -14 -26 9 -3 15 -10 12 -15 -3 -4 -13 -5 -22 -2 -11 5 -14 3
-8 -6 6 -10 3 -11 -13 -2 -27 14 -33 14 -30 -1 2 -7 -7 -14 -19 -16 -13 -2
-23 -8 -23 -13 0 -5 -6 -8 -12 -7 -7 2 -12 -3 -10 -10 2 -9 -6 -12 -28 -8 -16
2 -28 0 -25 -4 3 -5 1 -11 -5 -15 -6 -3 -9 -18 -8 -33 2 -28 -17 -72 -36 -84
-16 -11 -36 -10 -36 3 0 5 4 8 9 4 5 -3 12 -1 16 5 5 9 -15 14 -52 13 -6 0 -9
5 -7 11 2 7 -10 12 -31 13 -19 1 -35 -3 -35 -8 0 -15 -17 -10 -24 8 -6 16 8
33 29 33 6 0 4 -4 -4 -9 -9 -6 -4 -10 17 -13 55 -8 98 23 51 37 -12 4 -18 12
-15 21 7 18 -2 18 -21 -1 -11 -11 -19 -13 -27 -5 -7 5 -17 6 -21 2 -5 -4 -5
-2 -2 4 3 6 -3 35 -14 64 -11 29 -18 59 -15 67 3 8 1 11 -4 8 -6 -4 -19 15
-31 42 -11 26 -27 62 -36 80 -8 18 -12 36 -9 41 3 5 -1 35 -9 68 -17 75 -17
76 99 65 4 -1 6 -10 3 -21 -3 -11 -1 -17 4 -14 5 3 12 -3 16 -13 4 -10 13 -24
21 -32 7 -8 11 -22 9 -32 -3 -12 0 -19 9 -19 18 0 14 -40 -6 -66 -14 -17 -13
-18 1 -6 14 10 17 9 22 -9 3 -12 10 -18 16 -14 6 3 11 1 11 -5 0 -6 -6 -13
-13 -16 -18 -7 1 -84 20 -84 7 0 13 5 13 10 0 6 -5 10 -11 10 -6 0 -8 7 -5 16
3 8 2 12 -4 9 -12 -7 -13 5 -1 23 5 9 12 0 20 -30 19 -67 20 -98 5 -98 -20 0
-17 -13 4 -27 15 -9 18 -8 18 8 -1 26 17 26 30 -1 7 -13 14 -18 18 -11 4 6 -4
21 -17 33 -30 28 -53 108 -31 108 7 0 20 -13 29 -29 17 -33 48 -33 66 1 5 10
14 16 19 13 4 -3 6 4 3 15 -7 26 -17 25 -36 -2 -14 -19 -18 -21 -26 -8 -5 8
-7 18 -5 22 3 4 -3 8 -13 9 -11 0 -13 3 -5 6 16 6 6 23 -14 23 -8 0 -13 -3
-11 -7 3 -5 -1 -13 -8 -20 -19 -18 -31 34 -12 56 22 27 38 71 26 71 -6 0 -8 7
-5 16 3 8 2 13 -3 10 -9 -6 -15 20 -27 111 -4 29 -10 50 -14 48 -9 -6 -23 25
-15 33 3 3 5 0 5 -6 0 -6 7 -9 15 -6 8 4 15 15 15 25 0 11 7 19 18 19 9 0 28
15 41 33 21 29 28 32 67 29 34 -3 44 0 52 15 11 19 9 70 -3 111 -5 14 -3 22 5
22 8 0 10 8 6 24 -5 22 0 36 14 36 4 0 7 -45 6 -100z m-240 -826 c21 -6 22 -7
7 -22 -14 -15 -13 -17 13 -24 15 -4 37 -5 49 -2 28 7 82 -71 64 -92 -6 -8 -16
-11 -22 -7 -5 3 -7 2 -4 -4 3 -5 -14 -19 -37 -31 l-44 -21 -10 39 c-7 31 -7
40 4 44 8 3 14 15 14 26 0 23 -38 43 -56 29 -16 -13 -26 18 -14 41 7 13 7 21
-2 26 -6 4 -8 3 -5 -3 4 -6 -1 -17 -11 -24 -15 -13 -16 -12 -3 4 12 15 11 17
-5 17 -16 0 -17 2 -4 10 8 5 21 8 28 5 8 -3 25 -8 38 -11z"/>
<path d="M1918 868 c-23 -23 -44 -65 -57 -116 -11 -39 -42 -95 -73 -132 -7 -8
-12 -21 -10 -30 2 -13 1 -13 -7 -1 -8 12 -21 7 -73 -26 -142 -91 -267 -161
-298 -168 -36 -8 -140 -78 -184 -124 l-29 -31 30 9 c35 10 73 29 73 37 0 2 -9
0 -20 -6 -11 -6 -20 -9 -20 -6 0 2 34 23 75 47 41 23 75 46 75 51 0 4 5 8 12
8 6 0 3 -9 -7 -20 -10 -11 -15 -23 -12 -26 3 -4 16 10 28 30 11 20 25 36 31
36 5 0 51 25 101 56 126 78 217 127 217 117 1 -4 17 10 36 32 25 28 32 33 24
15 -10 -19 -10 -22 -1 -14 7 6 13 18 15 26 1 8 18 40 39 71 33 49 36 59 26 81
-10 22 -9 29 6 46 10 11 14 20 9 20 -5 0 -3 4 5 9 7 5 12 13 10 18 -2 5 -12 1
-21 -9z"/>
</g>
</svg>
