<?xml version="1.0" standalone="no"?>
<!DOCTYPE svg PUBLIC "-//W3C//DTD SVG 20010904//EN"
 "http://www.w3.org/TR/2001/REC-SVG-20010904/DTD/svg10.dtd">
<svg version="1.0" xmlns="http://www.w3.org/2000/svg"
 width="320.000000pt" height="180.000000pt" viewBox="0 0 320.000000 180.000000"
 preserveAspectRatio="xMidYMid meet">
<metadata>
Created by potrace 1.15, written by Peter Selinger 2001-2017
</metadata>
<g transform="translate(0.000000,180.000000) scale(0.100000,-0.100000)"
fill="#000000" stroke="none">
<path d="M2009 1785 c-1 -11 -2 -26 -2 -32 1 -7 -3 -10 -8 -7 -9 5 -13 -17
-10 -45 2 -8 -2 -10 -10 -6 -9 6 -10 1 -6 -16 5 -18 1 -28 -13 -36 -11 -7 -16
-20 -14 -30 5 -17 -28 -63 -44 -63 -9 0 -47 -62 -44 -72 1 -4 -10 -16 -25 -28
-20 -16 -24 -23 -14 -29 9 -6 2 -14 -23 -29 -43 -25 -50 -58 -11 -48 27 7 36
-11 10 -20 -8 -4 -15 -11 -15 -17 0 -6 -8 -19 -17 -29 -23 -26 -2 -49 27 -30
26 16 26 15 -11 -54 -67 -127 -85 -146 -96 -104 -8 31 -25 24 -18 -8 4 -21 -4
-49 -29 -103 -27 -57 -32 -76 -22 -84 31 -25 67 -105 64 -141 -2 -21 -8 -39
-13 -41 -7 -2 -9 12 -7 36 3 30 -3 52 -25 90 -28 52 -37 59 -48 41 -8 -13 -72
-13 -80 0 -3 6 -17 10 -29 10 -13 0 -24 6 -23 13 2 65 -5 118 -15 115 -8 -3
-11 -40 -9 -124 1 -65 -3 -132 -8 -149 -8 -23 -10 -8 -8 68 2 73 -1 97 -11 97
-7 0 -15 -7 -19 -16 -4 -12 -14 -14 -38 -10 -26 5 -35 2 -51 -18 -13 -19 -21
-22 -31 -14 -10 8 -13 7 -14 -3 -1 -8 -4 -3 -8 11 -4 14 -13 25 -21 25 -28 0
-21 -31 15 -69 35 -37 43 -68 26 -95 -12 -18 -51 -22 -51 -5 0 6 8 11 18 10
29 -2 23 65 -7 80 -13 7 -28 19 -33 28 -9 17 8 64 32 84 13 11 12 12 -4 4 -12
-6 -31 -6 -50 0 -29 9 -31 13 -31 60 l0 50 41 -4 c24 -2 46 2 53 10 7 6 23 12
36 12 35 0 31 19 -15 64 l-40 40 0 -49 c0 -67 -18 -46 -22 25 -2 41 -7 55 -18
55 -11 0 -16 -15 -18 -62 -2 -47 -7 -63 -17 -63 -12 0 -15 15 -15 65 0 49 -3
65 -14 65 -8 0 -16 -6 -19 -12 -4 -10 -7 -10 -18 0 -35 33 -39 3 -4 -32 27
-27 32 -55 13 -74 -16 -16 -65 -15 -71 2 -8 21 4 28 18 9 13 -17 35 -10 35 11
0 7 -11 22 -25 34 -14 12 -25 31 -25 41 0 11 -4 23 -10 26 -5 3 -10 -1 -10 -9
0 -19 -16 -21 -23 -3 -4 9 -7 9 -17 0 -11 -10 -8 -17 13 -37 30 -27 32 -38 17
-67 -13 -22 -65 -26 -73 -5 -8 21 4 28 18 9 13 -17 35 -10 35 11 0 7 -11 22
-24 33 -13 11 -26 27 -29 34 -5 12 -7 12 -15 0 -5 -7 -15 -10 -21 -7 -15 10
-14 -8 4 -51 18 -44 18 -43 0 -43 -9 0 -21 11 -27 25 -15 33 -42 32 -57 -1
-18 -41 -22 -23 -6 31 19 63 19 63 -10 57 -14 -2 -31 0 -38 6 -7 6 -18 7 -25
3 -9 -5 -5 -13 13 -29 33 -29 33 -69 1 -84 -28 -12 -56 -5 -56 14 0 9 3 9 12
0 16 -16 37 -15 44 3 4 9 -7 30 -25 50 -26 29 -29 39 -21 55 9 17 7 20 -13 20
-13 0 -27 3 -31 7 -3 4 -14 8 -24 9 -9 1 -25 5 -34 8 -13 6 -15 3 -11 -13 4
-17 1 -19 -23 -17 -34 4 -47 36 -45 113 2 64 -13 76 -36 26 -10 -21 -21 -40
-24 -43 -4 -3 -8 -14 -10 -24 -2 -11 -10 -21 -18 -24 -10 -3 -12 0 -8 11 4 11
-1 21 -14 27 -11 6 -17 15 -14 21 4 5 -1 9 -9 9 -10 0 -15 -8 -13 -22 2 -19
-5 -24 -37 -33 -22 -5 -53 -22 -70 -37 -17 -15 -36 -28 -42 -28 -7 0 -14 -6
-17 -12 -5 -15 -38 1 -45 22 -3 7 0 10 7 6 14 -9 15 6 0 21 -7 7 -4 34 10 89
22 80 19 94 -17 97 -27 2 -35 22 -19 47 9 16 9 24 -1 40 -6 11 -12 25 -12 32
-1 7 -8 22 -18 33 -14 17 -30 27 -84 53 -5 2 -8 -364 -8 -812 l0 -816 113 1
c61 0 106 3 100 6 -18 7 -16 33 3 33 11 0 14 6 9 20 -7 23 13 28 33 8 10 -10
15 -10 22 2 11 18 4 30 -21 30 -15 0 -19 7 -19 30 0 30 1 31 38 24 20 -4 46
-13 57 -20 11 -6 35 -15 52 -19 56 -11 38 -36 -28 -40 -22 -1 -39 2 -39 7 0 5
-5 6 -10 3 -18 -11 -10 -22 21 -29 17 -3 28 -10 24 -15 -3 -6 5 -16 17 -23 33
-19 658 -25 658 -6 0 9 3 9 12 0 7 -7 42 -12 86 -12 67 0 76 2 94 25 12 15 30
25 45 25 20 0 50 24 122 97 53 53 90 93 84 89 -9 -5 -11 -2 -7 8 7 19 20 21
27 4 4 -10 6 -10 6 -1 1 7 -8 17 -19 23 -19 10 -18 40 2 40 7 0 6 -5 -1 -13
-8 -11 -6 -16 12 -24 20 -9 22 -8 24 23 1 19 -3 34 -8 34 -6 0 -8 4 -4 9 3 5
21 7 40 4 25 -4 35 -2 35 8 0 14 49 69 62 69 4 0 8 -14 8 -30 0 -25 3 -29 18
-21 9 5 35 16 57 25 37 15 39 15 20 0 l-20 -17 20 8 c11 4 37 9 58 12 37 6 48
17 25 26 -8 3 -6 6 5 6 29 2 57 38 57 77 0 27 -7 42 -32 65 -40 36 -74 38 -90
4 -15 -34 -41 -34 -28 0 5 14 7 32 3 41 -3 9 0 20 8 24 11 7 9 13 -6 31 l-20
21 30 -4 c17 -3 24 -3 17 -1 -7 3 -10 9 -7 13 3 5 16 5 31 0 39 -15 54 -12 54
12 0 20 -1 20 -13 5 -10 -15 -16 -16 -39 -5 -16 7 -28 15 -28 18 0 11 16 27
30 33 8 3 0 6 -17 6 -18 1 -33 3 -33 6 0 4 9 23 27 54 2 2 9 -2 18 -9 25 -21
17 3 -10 28 -13 13 -29 21 -35 17 -6 -4 -7 1 -4 12 3 10 -8 -4 -26 -32 -18
-27 -29 -41 -25 -30 4 11 14 38 22 60 8 22 13 61 11 87 -2 27 -1 49 2 51 3 1
12 16 21 32 66 128 90 160 108 142 13 -13 40 17 41 46 0 9 4 17 9 17 10 0 35
56 37 85 2 27 26 85 36 85 4 0 8 7 8 15 0 8 19 27 43 44 24 16 56 44 72 63 59
66 64 66 62 3 -1 -34 4 -59 11 -64 18 -11 43 -89 31 -97 -6 -3 -8 -12 -5 -19
5 -14 -44 -28 -69 -19 -18 7 -20 -12 -2 -20 10 -5 10 -7 0 -12 -21 -9 -15 -34
8 -34 17 0 19 -3 10 -13 -6 -8 -8 -17 -4 -20 3 -4 -6 -7 -21 -7 l-28 0 23 -37
c13 -21 27 -39 31 -41 4 -2 7 -31 7 -65 -1 -50 -3 -56 -9 -32 -4 17 -8 22 -9
13 -1 -19 -21 -26 -21 -7 0 5 -4 8 -9 5 -13 -8 -31 102 -25 154 3 26 -1 62 -9
85 l-14 40 -21 -56 c-11 -31 -24 -96 -28 -144 -7 -86 -7 -87 15 -80 18 5 21 2
21 -22 0 -15 -9 -41 -20 -58 -12 -17 -19 -45 -18 -65 1 -30 2 -31 5 -7 7 43
20 32 38 -30 9 -32 22 -64 27 -71 7 -8 7 -12 0 -12 -10 0 -27 36 -38 85 -6 26
-8 27 -15 10 -14 -37 -9 -67 16 -97 19 -22 23 -36 18 -56 -3 -15 -10 -28 -15
-30 -4 -2 -8 -10 -8 -18 0 -9 -4 -13 -9 -10 -5 3 -11 -3 -14 -15 -6 -21 22
-38 66 -40 12 0 2 -6 -23 -12 -40 -11 -45 -15 -42 -37 2 -14 14 -46 28 -72 28
-53 24 -57 -23 -29 -23 14 -33 17 -37 8 -3 -7 -3 11 1 39 3 29 1 60 -5 70 -10
17 -12 15 -26 -18 -9 -21 -16 -54 -17 -75 l-1 -38 -12 29 c-7 16 -16 25 -19
19 -19 -30 67 -91 131 -92 14 -1 21 -5 16 -12 -3 -6 -17 -9 -30 -6 -26 5 -33
-10 -9 -19 8 -4 15 -11 15 -16 0 -7 -5 -7 -12 -1 -7 5 -32 15 -55 23 -23 7
-44 19 -47 26 -8 20 -25 17 -47 -8 -21 -26 -25 -63 -8 -74 15 -9 -58 -43 -95
-44 -21 0 -27 -4 -22 -15 8 -21 -62 -20 -92 1 -21 15 -25 14 -67 -12 -24 -16
-46 -38 -49 -50 -3 -12 -19 -27 -36 -34 -16 -7 -64 -46 -106 -87 -55 -54 -81
-72 -94 -68 -10 3 -21 1 -25 -5 -3 -5 -15 -10 -26 -10 -10 0 -19 -4 -19 -10 0
-6 120 -10 339 -10 l339 0 12 35 c17 52 31 54 25 3 -5 -41 -4 -41 5 -11 6 18
16 33 22 33 9 0 9 -3 0 -12 -7 -7 -12 -20 -12 -30 0 -17 20 -18 351 -18 346 0
350 0 344 20 -3 11 -2 20 4 20 5 0 13 -9 16 -20 6 -19 15 -20 266 -20 l259 0
0 190 c0 188 0 190 -22 190 -12 0 -18 -3 -15 -7 10 -9 -25 -32 -50 -33 -12 0
-24 4 -27 9 -9 15 -68 22 -82 10 -11 -9 -14 -8 -14 5 0 9 -4 16 -10 16 -5 0
-10 4 -10 8 0 5 7 9 15 9 8 0 15 -5 15 -11 0 -6 6 0 13 13 13 26 63 52 54 28
-3 -8 0 -14 6 -15 7 -1 27 -5 45 -8 22 -4 40 -1 57 10 25 16 25 17 25 171 0
141 -2 157 -20 175 -11 11 -17 26 -14 33 4 11 -1 13 -21 9 -17 -3 -23 -8 -16
-15 16 -16 1 -37 -26 -37 -21 0 -23 2 -13 15 6 8 9 19 5 25 -4 7 2 14 14 17
12 3 21 10 21 15 0 5 -4 7 -8 4 -10 -6 -12 18 -5 57 2 15 11 27 19 27 9 0 12
5 9 10 -3 6 -1 10 4 10 20 0 11 -49 -11 -64 l-22 -16 22 0 c12 0 21 -5 19 -11
-1 -6 8 -18 21 -26 20 -14 22 -14 22 5 0 11 -7 25 -15 32 -20 16 -19 34 1 26
13 -5 15 11 13 142 -2 152 -5 176 -20 166 -5 -3 -7 -9 -4 -14 3 -4 -2 -13 -10
-20 -19 -16 -19 -34 0 -26 8 3 15 2 15 -3 0 -5 -9 -11 -20 -14 -16 -4 -20 -11
-16 -32 6 -31 -2 -57 -15 -49 -5 3 -9 0 -9 -6 0 -6 -5 -8 -10 -5 -7 4 -7 11
-2 18 17 23 22 64 8 82 -15 21 -44 10 -69 -29 l-16 -24 39 5 c47 7 49 2 15
-35 -25 -26 -25 -27 -5 -32 19 -5 20 -7 6 -25 -18 -23 -20 -35 -6 -35 5 0 16
12 24 28 8 15 15 23 16 18 0 -5 6 -3 14 4 13 10 13 7 3 -19 -6 -16 -14 -28
-19 -25 -4 3 -5 -2 -2 -10 3 -9 1 -16 -4 -16 -6 0 -12 -10 -14 -22 -2 -13 -9
-22 -16 -20 -9 1 -11 -9 -6 -37 5 -31 2 -45 -13 -64 l-19 -25 -23 29 c-22 27
-24 28 -37 12 -7 -10 -14 -27 -14 -39 0 -11 -9 -29 -19 -38 -11 -10 -22 -28
-24 -40 l-4 -21 -2 22 c0 12 -10 24 -21 28 -11 4 -18 11 -14 16 3 5 10 7 15 4
5 -4 9 1 9 9 0 9 -6 15 -12 13 -7 -1 -12 6 -10 15 2 13 -3 16 -23 12 -14 -2
-25 0 -25 6 0 6 -14 8 -32 6 -18 -3 -27 -3 -20 0 33 15 -14 70 -50 58 -13 -4
-18 -2 -14 4 3 6 3 13 -2 16 -4 2 -14 -4 -21 -16 -7 -11 -8 -17 -2 -13 6 3 11
1 11 -5 0 -7 7 -10 15 -6 8 3 25 1 37 -4 13 -5 17 -9 9 -9 -7 -1 -11 -7 -7
-16 6 -18 -24 -21 -41 -4 -8 8 -13 8 -17 0 -11 -17 4 -32 25 -26 10 4 26 2 35
-3 30 -17 -15 -24 -48 -7 -36 17 -57 10 -31 -11 17 -14 16 -14 -7 -12 l-25 3
-1 155 c0 85 -5 193 -11 239 -11 84 -11 85 14 105 20 15 38 19 91 17 59 -2 64
-1 53 13 -7 9 -29 25 -48 37 -27 17 -39 19 -61 11 -74 -28 -73 -29 -120 71
-23 51 -42 106 -42 124 0 41 -21 96 -27 71 -6 -25 -23 -22 -23 3 0 11 -4 18
-10 14 -13 -8 -39 47 -47 100 -5 38 -2 51 16 76 l22 29 -35 0 c-18 0 -36 -6
-39 -13 -8 -20 13 -136 33 -182 10 -24 16 -46 13 -49 -3 -3 -24 10 -46 29 -22
19 -44 35 -49 35 -4 0 -5 21 -2 48 7 52 7 53 -2 100 l-6 32 -67 0 c-69 -1
-154 -19 -171 -36 -11 -11 -73 -6 -66 5 3 4 1 13 -5 21 -7 12 -9 11 -10 -5z
m-516 -1145 c-6 -40 7 -54 24 -27 22 33 40 38 76 20 33 -17 35 -20 33 -70 0
-28 -4 -55 -8 -59 -5 -4 -8 -18 -8 -30 0 -13 -6 -27 -13 -31 -8 -4 -16 -16
-20 -25 -3 -9 -22 -20 -42 -24 -20 -3 -42 -12 -49 -19 -20 -21 -47 7 -53 56
-5 38 -4 42 12 35 11 -4 22 -1 27 6 13 21 9 93 -7 114 -17 22 -20 54 -5 54 6
0 10 6 10 14 0 8 6 17 13 19 6 3 13 6 14 6 0 1 -1 -17 -4 -39z"/>
</g>
</svg>
